Coordinates
version=1
nRows=19
nColumns=34
inDegrees=yes

Units are S.I. units (second, meters, Newtons, ...)
If the header above contains a line with 'inDegrees', this indicates whether rotational values are in degrees (yes) or radians (no).

endheader
time	pelvis_tilt	pelvis_list	pelvis_rotation	pelvis_tx	pelvis_ty	pelvis_tz	hip_flexion_r	hip_adduction_r	hip_rotation_r	knee_angle_r	ankle_angle_r	subtalar_angle_r	mtp_angle_r	hip_flexion_l	hip_adduction_l	hip_rotation_l	knee_angle_l	ankle_angle_l	subtalar_angle_l	mtp_angle_l	lumbar_extension	lumbar_bending	lumbar_rotation	arm_flex_r	arm_add_r	arm_rot_r	elbow_flex_r	pro_sup_r	arm_flex_l	arm_add_l	arm_rot_l	elbow_flex_l	pro_sup_l
      0.00000000	      1.51930364	     -2.42001759	     -0.24165988	     -0.48076028	      0.95885704	     -0.15921394	     -3.17528606	      2.09920927	     -1.33870867	      5.10471216	      3.46071687	     -8.96597095	      0.00000000	     -4.96076479	     -4.52539142	     -4.48770177	      3.48336319	     13.28116007	      0.48218480	      0.00000000	     -3.22433176	      3.53091452	     -5.50017562	      2.56679910	     -5.08969794	      8.63069343	     24.67656233	     85.64331599	     -4.79268999	     -5.03947005	      6.53104944	     23.80888675	     74.49529684
      0.01666670	     -0.73534037	     -1.07192537	     -0.79921204	     -0.47837222	      0.95324227	     -0.15829817	     -0.99073392	      0.96339652	     -0.61494861	      4.40750474	      7.20774566	     -5.40543110	      0.00000000	     -1.68307760	     -2.68006620	     -5.31670432	      4.19033843	     12.77752800	      1.35735540	      0.00000000	      0.89454531	      2.34369437	     -5.34856558	      1.48523570	     -4.86196738	      7.67354588	     24.33895079	     85.53625746	     -5.64195562	     -4.97286797	      5.14550544	     22.76015947	     74.35564657
      0.03333330	     -1.29037706	     -0.42680131	     -1.13123134	     -0.48063835	      0.94920135	     -0.15891049	     -0.28073617	      0.09261604	     -0.93555131	      3.56905486	      7.47052537	     -4.73140587	      0.00000000	     -0.93465757	     -1.90892738	     -6.13477803	      4.50171489	     13.12868364	      2.46595574	      0.00000000	      1.81052517	      1.63492760	     -5.00163975	      1.40375427	     -4.96982062	      7.78483047	     24.68564940	     85.59197357	     -5.73488019	     -5.40662674	      5.59335000	     22.68476562	     74.53375536
      0.05000000	     -0.79970441	     -0.00548523	     -1.19348589	     -0.47659356	      0.95561151	     -0.15714425	     -1.14979736	     -0.37815244	     -1.19283950	      3.22650150	      7.87992129	     -3.55588922	      0.00000000	     -1.88294562	     -1.36727499	     -6.03470313	      4.25405691	     12.82595481	      2.16687746	      0.00000000	      1.74741303	      1.05328966	     -4.60675666	      1.06983272	     -5.03080065	      9.05568714	     24.76369102	     85.71719324	     -5.38603622	     -6.19648398	      9.91510249	     21.90849946	     75.48778245
      0.06666670	     -0.73792276	      0.11115156	     -1.38592710	     -0.48050710	      0.95223861	     -0.15829531	     -1.06981945	     -0.51563831	     -0.91966202	      2.89098608	      8.04223992	     -3.59172592	      0.00000000	     -2.10555062	     -1.14070972	     -5.81861428	      4.01976005	     13.17398903	      2.16429944	      0.00000000	      1.62178628	      1.04202223	     -4.37291339	      1.19853379	     -5.06909083	      9.15821773	     24.83197556	     85.72209972	     -5.27386763	     -6.14878195	     10.09927459	     21.94806542	     75.48543617
      0.08333330	     -0.01912151	      0.05227943	     -1.35768413	     -0.47972033	      0.95568154	     -0.15807333	     -1.94683438	     -0.42470108	     -0.57106003	      2.26176786	      7.53187230	     -3.88035069	      0.00000000	     -3.05506754	     -1.15782298	     -5.45961276	      3.56708726	     12.97462183	      1.97350349	      0.00000000	      0.65766112	      1.08028610	     -3.98021330	      1.37487657	     -5.22694198	      9.80520352	     24.90414362	     85.74353295	     -4.45920309	     -6.16462825	     11.07911533	     21.60001788	     75.43621039
      0.10000000	      0.14428205	      0.23593745	     -1.34167897	     -0.47797868	      0.96036328	     -0.15622646	     -2.40587256	     -0.52569831	     -0.57417401	      2.02982689	      7.69887874	     -3.37862320	      0.00000000	     -3.37025529	     -0.99798075	     -5.35941747	      3.25543107	     12.07882675	      1.40007650	      0.00000000	      0.60865551	      0.83830531	     -3.85404424	      1.27053973	     -5.24201799	     10.56117598	     24.55173875	     85.61347668	     -3.90274046	     -6.24479413	     12.55092921	     20.77809095	     75.11279746
      0.11666670	      0.16220190	      0.45460678	     -1.31204596	     -0.47760988	      0.96008693	     -0.15583117	     -2.62369614	     -0.68211065	     -0.51921562	      1.88342908	      7.70900050	     -3.30578497	      0.00000000	     -3.39136931	     -0.84721600	     -5.50944704	      3.26646205	     11.61704205	      1.43516627	      0.00000000	      0.64445698	      0.50835859	     -3.94569752	      1.07344264	     -5.08991713	     10.62604957	     24.48921842	     85.59223491	     -3.82126182	     -6.33821027	     12.62639143	     20.73444914	     75.05236136
      0.13333330	      0.19502513	      0.54910191	     -1.24667459	     -0.47815407	      0.95905689	     -0.15582702	     -2.76467743	     -0.73869418	     -0.44772158	      1.89617955	      7.68632493	     -3.24937310	      0.00000000	     -3.43750525	     -0.79242431	     -5.59824646	      3.25271316	     11.36950402	      1.43475584	      0.00000000	      0.69350799	      0.44753438	     -4.07735767	      0.93597712	     -5.07079619	     10.64596527	     24.42824534	     85.58565335	     -3.65158983	     -6.39239145	     12.63655582	     20.75281287	     75.02967176
      0.15000000	      0.15734649	      0.56158181	     -1.25203298	     -0.47753193	      0.96048565	     -0.15592008	     -2.78989299	     -0.71770417	     -0.44785455	      1.90526366	      7.68343446	     -3.24789392	      0.00000000	     -3.44826292	     -0.78263536	     -5.59287480	      3.26193111	     11.35390603	      1.43994605	      0.00000000	      0.68974990	      0.43983561	     -4.07446843	      0.94099374	     -5.06731919	     10.64699520	     24.42879959	     85.58535169	     -3.64827084	     -6.39682953	     12.63691946	     20.75022475	     75.02830731
      0.16666670	      0.83943003	      0.63327683	     -1.23212460	     -0.48179847	      0.95426451	     -0.15662374	     -3.56754483	     -0.82982411	     -0.32280818	      1.32970800	      7.41222018	     -3.41970497	      0.00000000	     -4.23763666	     -0.62806564	     -5.20720345	      2.81053696	     10.59903309	      1.24471804	      0.00000000	     -0.28985577	      0.24818101	     -3.94696616	      1.29801923	     -5.01964797	     10.92404881	     24.21626303	     85.49254130	     -2.94994261	     -6.55196086	     12.88738646	     20.21965163	     74.61997431
      0.18333330	      0.86278831	      0.62339113	     -1.31867241	     -0.48203815	      0.95578408	     -0.15649069	     -3.46024929	     -0.85022350	     -0.29295149	      1.15527640	      7.42105673	     -3.41879978	      0.00000000	     -4.16710059	     -0.59885615	     -5.12145636	      2.75344220	     10.61448917	      1.27524189	      0.00000000	     -0.37265919	      0.23455543	     -3.96627444	      1.33917792	     -5.02253220	     10.93220846	     24.22263459	     85.48927541	     -2.87566864	     -6.56296595	     12.89328330	     20.22251048	     74.60554478
      0.20000000	      0.87769613	      0.59207375	     -1.19489510	     -0.47958947	      0.96096586	     -0.15748948	     -3.51520485	     -0.85364099	     -0.08599940	      0.85528088	      7.16553360	     -3.39161582	      0.00000000	     -4.18042159	     -0.59555402	     -4.71195328	      2.70181165	     10.71969296	      1.40896852	      0.00000000	     -0.48517497	      0.23835039	     -3.99346372	      1.45081334	     -5.05536444	     10.99026088	     24.22070029	     85.47548664	     -2.63497700	     -6.59939705	     12.92979497	     20.17625309	     74.52413461
      0.21666670	      0.89330253	      0.59264811	     -1.17908611	     -0.48030593	      0.96532190	     -0.15714461	     -3.47019724	     -0.84208235	     -0.08627037	      0.83216730	      7.15928908	     -3.39397759	      0.00000000	     -4.20208793	     -0.57631324	     -4.70383431	      2.71381917	     10.72203163	      1.41096119	      0.00000000	     -0.48766420	      0.24252389	     -3.99533528	      1.44693500	     -5.05573711	     10.99205896	     24.21869804	     85.47522699	     -2.63157725	     -6.60347552	     12.93025753	     20.17337254	     74.52213205
      0.23333330	      1.15884580	      0.53835703	     -0.88718759	     -0.47971893	      0.96345661	     -0.15715217	     -3.93191686	     -0.78214086	     -0.34480858	      0.34894674	      6.17244712	     -3.71295473	      0.00000000	     -4.43293196	     -0.64798141	     -4.19076246	      2.84247399	     10.81923959	      1.55163565	      0.00000000	     -0.97644472	      0.31160599	     -4.09480134	      1.48672898	     -5.07690822	     11.16322576	     24.08543196	     85.44719836	     -2.17786951	     -6.63617846	     13.03486422	     19.92644970	     74.32377479
      0.25000000	      1.15193199	      0.53150551	     -0.87685941	     -0.47896548	      0.96201853	     -0.15713689	     -3.89523024	     -0.78190501	     -0.33972288	      0.33058204	      6.16611721	     -3.71222562	      0.00000000	     -4.48538527	     -0.66116865	     -4.18550946	      2.86135488	     10.81779451	      1.55401654	      0.00000000	     -0.98154587	      0.30835553	     -4.10041329	      1.48504943	     -5.07841520	     11.16419573	     24.08340641	     85.44685788	     -2.16972956	     -6.64046057	     13.03513658	     19.92525439	     74.32207635
      0.26666670	      1.32780653	      0.34339202	     -0.81521129	     -0.47948079	      0.96031375	     -0.15752923	     -4.23407804	     -0.57281444	     -0.27666800	      0.00000000	      5.67154997	     -3.87676546	      0.00000000	     -4.78191738	     -0.86862256	     -3.86033608	      2.75673949	     10.97900952	      1.64249813	      0.00000000	     -1.17617345	      0.55698178	     -4.13635410	      1.48977240	     -5.14659378	     11.25426708	     23.97607099	     85.42345268	     -1.97370218	     -6.64286680	     13.09538830	     19.75703020	     74.19315683
      0.28333330	      1.27984264	      0.33661406	     -0.80809382	     -0.47766772	      0.95798665	     -0.15791217	     -4.24463749	     -0.58181577	     -0.27394538	      0.01711519	      5.66459187	     -3.87894947	      0.00000000	     -4.83953396	     -0.87993968	     -3.85824667	      2.78951937	     10.97837999	      1.64268776	      0.00000000	     -1.17899903	      0.55178100	     -4.14190196	      1.49068783	     -5.15078567	     11.25462016	     23.97464604	     85.42304031	     -1.96371924	     -6.64460748	     13.09558325	     19.75717328	     74.19148387
      0.30000000	      1.35085528	      0.34837253	     -0.72244861	     -0.47426488	      0.96310497	     -0.15673786	     -4.52793547	     -0.53833302	     -0.24167742	      0.33424074	      5.59404241	     -3.89955482	      0.00000000	     -5.04672692	     -0.92217611	     -3.84335354	      2.98808300	     10.94091302	      1.64588100	      0.00000000	     -0.98625490	      0.50320207	     -4.19897321	      1.34057899	     -5.18538939	     11.26539165	     23.92076286	     85.41962186	     -1.98704426	     -6.66447211	     13.09901791	     19.72999552	     74.17401782
